<svg id="Layer_1" data-name="Layer 1" xmlns="http://www.w3.org/2000/svg" viewBox="0 0 278.53 61.54"><defs><style>.cls-1{fill:#ff9e16;}.cls-2{fill:#4daa95;stroke:#4daa95;stroke-width:0.26px;}.cls-2,.cls-5{stroke-miterlimit:10;}.cls-3,.cls-5{fill:none;}.cls-4{fill:#7d6b67;}.cls-5{stroke:#7d6b67;stroke-width:0.26px;}</style></defs><title>Untitled-2</title><path class="cls-1" d="M210.83,378.57c-2.65,4.63-.89,7.7,1.07,9.49a19.55,19.55,0,0,0,7.64,3.79c2.87,0.84,4.89,1.52,6.09,1.95,0.86,0.3,1.43.52,1.75,0.65a1.78,1.78,0,0,0,.53,1.79l8.91,8.1a1.71,1.71,0,1,0,2.29-2.52l-8.91-8.1a1.83,1.83,0,0,0-1.73-.42v0c-0.15-.3-0.42-0.85-0.82-1.7-0.55-1.18-1.43-3.15-2.52-5.88a19.62,19.62,0,0,0-4.5-7.24l0,0h0c-1.94-1.76-5.16-3.21-9.52-.13l-0.07.06Zm9.09,11.94a18.18,18.18,0,0,1-7.08-3.48c-2.13-2-2.51-4.17-1.19-7l13.21,12C223.3,391.53,221.64,391,219.92,390.51Zm-0.21-11a18.16,18.16,0,0,1,4.13,6.72q1,2.51,2,4.76l-13.21-12C215.3,377.37,217.55,377.54,219.71,379.49Z" transform="translate(-166.39 -365.29)"/><polygon class="cls-1" points="105.71 33.59 103.48 33.59 89.99 33.59 90.42 35.29 103.48 35.29 105.71 35.29 121.97 35.29 122.39 33.59 105.71 33.59"/><path class="cls-1" d="M272.29,385.69h0c-5.68.46-10.14,6.08-10.19,11.87h25.24a14.77,14.77,0,0,0-7.79-12.73V383.6a4.13,4.13,0,0,0-1.27-2.76c-1.22-1.22-3.13-1.84-5.68-1.84-6.87,0-7,4.54-7,4.6v1.23a14.76,14.76,0,0,0-7.79,12.73h2.49C260.38,391.47,266.2,385.7,272.29,385.69Zm-4.73-2.09s0.08-2.66,5-2.66,5,2.56,5,2.65V384a14.52,14.52,0,0,0-10,0V383.6Z" transform="translate(-166.39 -365.29)"/><path class="cls-1" d="M171.14,382.43l2.09,0.38a0.81,0.81,0,0,1,.34.15,0.83,0.83,0,0,1,.34.8l-0.4,2.75,3.27-2.73a0.84,0.84,0,0,1,1.09,0l2.91,2.61-0.35-2.67a0.83,0.83,0,0,1,.14-0.58l0-.06a0.84,0.84,0,0,1,.59-0.3l2.63-.17a12.91,12.91,0,0,0-5.26-1.57,0.84,0.84,0,0,1-.74-0.6l-0.11-.38a32.35,32.35,0,0,0-1.23-3.77L175,377a10.43,10.43,0,0,1,1.27,3.18,0.84,0.84,0,0,1-.72,1A11,11,0,0,0,171.14,382.43Z" transform="translate(-166.39 -365.29)"/><path class="cls-1" d="M185,383.74l-3.41.22,0.54,4.09a0.48,0.48,0,0,1-.79.42l-4-3.58L173,388.48a0.48,0.48,0,0,1-.78-0.44l0.6-4.14-2.28-.42a10.19,10.19,0,0,0-4.16,8.12c0,5.78,5,10.47,11.21,10.47s11.21-4.69,11.21-10.47A10.15,10.15,0,0,0,185,383.74Zm-13.88,14c-1.44-.22-4.75-6-0.6-10.88C169,390.09,170.12,396.87,171.1,397.72Z" transform="translate(-166.39 -365.29)"/><path class="cls-2" d="M333.12,421.41h0.45v3.46a2,2,0,0,1-.62,1.3,2.06,2.06,0,0,1-.62.39,2,2,0,0,1-1.51,0,2,2,0,0,1-1.06-1.06,1.93,1.93,0,0,1-.16-0.77v-5.42a1.93,1.93,0,0,1,.16-0.77,2,2,0,0,1,1.06-1.06,2,2,0,0,1,1.54,0,2,2,0,0,1,1,1,1.93,1.93,0,0,1,.16.77h-0.45a1.42,1.42,0,0,0-.12-0.59,1.59,1.59,0,0,0-.81-0.81,1.42,1.42,0,0,0-.59-0.12,1.47,1.47,0,0,0-.6.12,1.57,1.57,0,0,0-.49.33,1.61,1.61,0,0,0-.33.48,1.43,1.43,0,0,0-.12.59v5.42a1.47,1.47,0,0,0,.12.6,1.55,1.55,0,0,0,.82.82,1.46,1.46,0,0,0,.6.12,1.42,1.42,0,0,0,.59-0.12,1.59,1.59,0,0,0,.48-0.33,1.57,1.57,0,0,0,.33-0.49,1.46,1.46,0,0,0,.12-0.6v-2.85h-1.86v-0.45h1.86Z" transform="translate(-166.39 -365.29)"/><path class="cls-2" d="M337.88,426.7a1.93,1.93,0,0,1-.77-0.16,2,2,0,0,1-1.06-1.06,1.93,1.93,0,0,1-.16-0.77v-5.42a1.93,1.93,0,0,1,.16-0.77,2,2,0,0,1,1.06-1.06,1.93,1.93,0,0,1,.77-0.16,1.88,1.88,0,0,1,.77.16,2,2,0,0,1,.62.43,2,2,0,0,1,.43.63,1.93,1.93,0,0,1,.16.77v5.42a1.93,1.93,0,0,1-.16.77,2,2,0,0,1-1,1.06A1.88,1.88,0,0,1,337.88,426.7Zm0-8.94a1.47,1.47,0,0,0-.6.12,1.57,1.57,0,0,0-.49.33,1.61,1.61,0,0,0-.33.48,1.43,1.43,0,0,0-.12.59v5.42a1.47,1.47,0,0,0,.12.6,1.55,1.55,0,0,0,.82.82,1.46,1.46,0,0,0,.6.12,1.42,1.42,0,0,0,.59-0.12,1.6,1.6,0,0,0,.48-0.33,1.58,1.58,0,0,0,.33-0.49,1.47,1.47,0,0,0,.12-0.6v-5.42a1.42,1.42,0,0,0-.12-0.59,1.59,1.59,0,0,0-.81-0.81A1.42,1.42,0,0,0,337.88,417.76Z" transform="translate(-166.39 -365.29)"/><path class="cls-2" d="M346.15,417.36v7.34a1.93,1.93,0,0,1-.16.77,2,2,0,0,1-1,1.06,1.88,1.88,0,0,1-.77.16,1.93,1.93,0,0,1-.77-0.16,2,2,0,0,1-1.06-1.06,1.93,1.93,0,0,1-.16-0.77v-7.34h0.45v7.34a1.47,1.47,0,0,0,.12.6,1.55,1.55,0,0,0,.82.82,1.47,1.47,0,0,0,.6.12,1.42,1.42,0,0,0,.59-0.12,1.6,1.6,0,0,0,.48-0.33,1.57,1.57,0,0,0,.33-0.49,1.46,1.46,0,0,0,.12-0.6v-7.34h0.45Z" transform="translate(-166.39 -365.29)"/><path class="cls-2" d="M350.08,422.72H349v3.91h-0.45v-9.27h1.67a2,2,0,0,1,.77.15,1.91,1.91,0,0,1,.63.42,2,2,0,0,1,.42.62,1.89,1.89,0,0,1,.16.77v1.44a1.82,1.82,0,0,1-.12.67,2,2,0,0,1-.34.58,2,2,0,0,1-1.14.67l1.67,3.95h-0.48Zm-1.12-.45h1.22a1.5,1.5,0,0,0,1.07-.44,1.59,1.59,0,0,0,.33-0.48,1.42,1.42,0,0,0,.12-0.59v-1.44a1.39,1.39,0,0,0-.12-0.58,1.59,1.59,0,0,0-.81-0.81,1.43,1.43,0,0,0-.59-0.12H349v4.46Z" transform="translate(-166.39 -365.29)"/><path class="cls-2" d="M360.06,417.36v9.27h-0.45v-8l-2.29,6.29-2.3-6.29v8h-0.45v-9.27H355l2.29,6.25,2.28-6.25h0.47Z" transform="translate(-166.39 -365.29)"/><path class="cls-2" d="M362.88,417.81v3.51h2.59v0.45h-2.59v4.4H366v0.45h-3.61v-9.27H366v0.45h-3.15Z" transform="translate(-166.39 -365.29)"/><path class="cls-2" d="M372.1,417.81h-1.85v8.82h-0.45v-8.82h-1.85v-0.45h4.15v0.45Z" transform="translate(-166.39 -365.29)"/><path class="cls-2" d="M383,417.36v9.27h-0.45v-8l-2.29,6.29-2.3-6.29v8h-0.45v-9.27H378l2.29,6.25,2.28-6.25H383Z" transform="translate(-166.39 -365.29)"/><path class="cls-2" d="M385.83,417.81v3.51h2.59v0.45h-2.59v4.4H389v0.45h-3.61v-9.27H389v0.45h-3.15Z" transform="translate(-166.39 -365.29)"/><path class="cls-2" d="M395.45,426.63l-0.64-2.91h-2.66l-0.64,2.91H391l2.06-9.27h0.77l2.06,9.27h-0.47Zm-3.21-3.36h2.47l-1.23-5.54Z" transform="translate(-166.39 -365.29)"/><path class="cls-2" d="M401.43,426.18v0.45H398v-9.27h0.45v8.82h2.93Z" transform="translate(-166.39 -365.29)"/><path class="cls-2" d="M408.21,422h-1.06v4.59h-0.45v-9.27h0.45v4.22h1.06l2.19-4.22h0.51l-2.3,4.44,2.51,4.83h-0.51Z" transform="translate(-166.39 -365.29)"/><path class="cls-2" d="M413.18,426.63v-9.27h0.45v9.27h-0.45Z" transform="translate(-166.39 -365.29)"/><path class="cls-2" d="M419.83,417.81H418v8.82h-0.45v-8.82h-1.85v-0.45h4.15v0.45Z" transform="translate(-166.39 -365.29)"/><path class="cls-2" d="M423.79,421.73l0.68,0.57a4.43,4.43,0,0,1,.6.65,3.1,3.1,0,0,1,.43.78,2.75,2.75,0,0,1,.16,1,1.93,1.93,0,0,1-.16.78,2,2,0,0,1-1,1.06,1.87,1.87,0,0,1-.77.16,1.93,1.93,0,0,1-.77-0.16,2,2,0,0,1-1.06-1.06,1.93,1.93,0,0,1-.16-0.77h0.45a1.47,1.47,0,0,0,.12.6,1.59,1.59,0,0,0,.33.49,1.57,1.57,0,0,0,.49.33,1.46,1.46,0,0,0,.6.12,1.42,1.42,0,0,0,.59-0.12,1.59,1.59,0,0,0,.48-0.33,1.57,1.57,0,0,0,.33-0.49,1.46,1.46,0,0,0,.12-0.6,2.29,2.29,0,0,0-.14-0.84,2.68,2.68,0,0,0-.38-0.68,4.06,4.06,0,0,0-.55-0.58l-0.64-.53-0.65-.54a4.29,4.29,0,0,1-.58-0.61,3,3,0,0,1-.41-0.73,2.48,2.48,0,0,1-.16-0.92,1.93,1.93,0,0,1,.16-0.77,2,2,0,0,1,1.06-1.06,2,2,0,0,1,1.54,0,2,2,0,0,1,1,1,1.93,1.93,0,0,1,.16.77h-0.45a1.42,1.42,0,0,0-.12-0.59,1.59,1.59,0,0,0-.81-0.81,1.42,1.42,0,0,0-.59-0.12,1.47,1.47,0,0,0-.6.12,1.57,1.57,0,0,0-.49.33,1.61,1.61,0,0,0-.33.48,1.43,1.43,0,0,0-.12.59,2,2,0,0,0,.14.78,2.57,2.57,0,0,0,.36.63,3.86,3.86,0,0,0,.52.54Z" transform="translate(-166.39 -365.29)"/><path class="cls-3" d="M358.92,380.5a2.68,2.68,0,0,0-1.22-2.13,5.6,5.6,0,0,0-6.51,0,2.7,2.7,0,0,0-1.2,2.14v8.19h8.92V380.5Z" transform="translate(-166.39 -365.29)"/><path class="cls-3" d="M316.32,380.5a2.68,2.68,0,0,0-1.22-2.13,5.6,5.6,0,0,0-6.51,0,2.7,2.7,0,0,0-1.2,2.14v22.55a2.66,2.66,0,0,0,1.19,2.17,5.75,5.75,0,0,0,6.53,0,2.64,2.64,0,0,0,1.21-2.16V380.5Z" transform="translate(-166.39 -365.29)"/><path class="cls-3" d="M441.58,380.5a2.68,2.68,0,0,0-1.22-2.13,5.6,5.6,0,0,0-6.51,0,2.71,2.71,0,0,0-1.2,2.14v8.19h8.93V380.5Z" transform="translate(-166.39 -365.29)"/><path class="cls-3" d="M400.34,393.74a2.69,2.69,0,0,0-1.22-2.14,5.61,5.61,0,0,0-6.51,0,2.71,2.71,0,0,0-1.2,2.14v9.31a2.66,2.66,0,0,0,1.19,2.16,5.75,5.75,0,0,0,6.53,0,2.64,2.64,0,0,0,1.21-2.16v-9.31Z" transform="translate(-166.39 -365.29)"/><path class="cls-4" d="M339.32,376.21a7.92,7.92,0,0,0-2.47-1.4,8.91,8.91,0,0,0-3-.51,8.72,8.72,0,0,0-3.48.69,10.56,10.56,0,0,0-1,.48V374.3H326v34.95h3.41V380.5a2.7,2.7,0,0,1,1.19-2.14,5,5,0,0,1,3.26-1,5.48,5.48,0,0,1,1.82.3,4.71,4.71,0,0,1,1.43.79,3.47,3.47,0,0,1,.9,1.12,2.84,2.84,0,0,1,.31,1.29v1h3.34v-1a5.31,5.31,0,0,0-.66-2.56A7.46,7.46,0,0,0,339.32,376.21Z" transform="translate(-166.39 -365.29)"/><path class="cls-4" d="M359.89,376.06a8.12,8.12,0,0,0-2.45-1.29,9.39,9.39,0,0,0-3-.47,9.59,9.59,0,0,0-3,.47,8.09,8.09,0,0,0-2.45,1.29,6.64,6.64,0,0,0-1.69,2,5,5,0,0,0-.68,2.48v22.55a5.44,5.44,0,0,0,2.39,4.53,9,9,0,0,0,5.48,1.67,8.83,8.83,0,0,0,5.45-1.68,5.46,5.46,0,0,0,2.36-4.52v-4.4h-3.34v4.4a2.64,2.64,0,0,1-1.21,2.16,5.75,5.75,0,0,1-6.52,0,2.66,2.66,0,0,1-1.19-2.17v-11.4h12.27V380.5a5,5,0,0,0-.68-2.48A6.67,6.67,0,0,0,359.89,376.06ZM350,380.5a2.7,2.7,0,0,1,1.2-2.14,5.6,5.6,0,0,1,6.51,0,2.68,2.68,0,0,1,1.22,2.13v8.19H350V380.5Z" transform="translate(-166.39 -365.29)"/><path class="cls-4" d="M381.9,367.15a8.29,8.29,0,0,0-2.45-1.36A9.47,9.47,0,0,0,371,367a5.46,5.46,0,0,0-2.38,4.48v37.76H372V382.63h9.76v-3H372v-8.12a2.66,2.66,0,0,1,1.19-2.16,5.14,5.14,0,0,1,3.28-1,4.89,4.89,0,0,1,3.22,1.09,3,3,0,0,1,1.24,2.41v1h3.34v-1a5.43,5.43,0,0,0-.67-2.63A7,7,0,0,0,381.9,367.15Z" transform="translate(-166.39 -365.29)"/><path class="cls-4" d="M401.31,376.06a8.08,8.08,0,0,0-2.45-1.29,9.39,9.39,0,0,0-3-.47,9.59,9.59,0,0,0-3,.47,8.08,8.08,0,0,0-2.45,1.29,6.61,6.61,0,0,0-1.69,2,5,5,0,0,0-.68,2.48v4.4h3.41v-4.4a2.7,2.7,0,0,1,1.2-2.14,5.6,5.6,0,0,1,6.51,0,2.68,2.68,0,0,1,1.22,2.13v8.19a9.61,9.61,0,0,0-1-.5,8.85,8.85,0,0,0-3.44-.66,9.65,9.65,0,0,0-3,.47,8.12,8.12,0,0,0-2.46,1.29,6.65,6.65,0,0,0-1.69,2,5,5,0,0,0-.68,2.48v9.31a5.47,5.47,0,0,0,2.39,4.49,8.86,8.86,0,0,0,5.49,1.71,9.27,9.27,0,0,0,3.42-.62,9,9,0,0,0,1-.49v1.11h3.34V380.5A5,5,0,0,0,403,378,6.69,6.69,0,0,0,401.31,376.06Zm-2.18,29.15a5.75,5.75,0,0,1-6.53,0,2.66,2.66,0,0,1-1.19-2.16v-9.31a2.71,2.71,0,0,1,1.2-2.14,5.61,5.61,0,0,1,6.51,0,2.69,2.69,0,0,1,1.22,2.14v9.31A2.64,2.64,0,0,1,399.13,405.21Z" transform="translate(-166.39 -365.29)"/><path class="cls-4" d="M422.13,376.21a7.86,7.86,0,0,0-2.46-1.4,8.91,8.91,0,0,0-3-.51,8.71,8.71,0,0,0-3.48.69,10.58,10.58,0,0,0-1,.48V374.3h-3.41v34.95h3.41V380.5a2.7,2.7,0,0,1,1.2-2.14,5,5,0,0,1,3.27-1,5.49,5.49,0,0,1,1.82.3,4.71,4.71,0,0,1,1.43.79,3.45,3.45,0,0,1,.9,1.12,2.85,2.85,0,0,1,.31,1.29v1h3.35v-1a5.28,5.28,0,0,0-.67-2.57A7.34,7.34,0,0,0,422.13,376.21Z" transform="translate(-166.39 -365.29)"/><path class="cls-4" d="M444.25,378a6.72,6.72,0,0,0-1.7-2,8.13,8.13,0,0,0-2.45-1.29,9.39,9.39,0,0,0-3-.47,9.59,9.59,0,0,0-3,.47,8.1,8.1,0,0,0-2.45,1.29,6.61,6.61,0,0,0-1.7,2,5,5,0,0,0-.68,2.48v22.55a5.44,5.44,0,0,0,2.4,4.53,9,9,0,0,0,5.48,1.67,8.85,8.85,0,0,0,5.45-1.68,5.47,5.47,0,0,0,2.36-4.52v-4.4h-3.34v4.4a2.64,2.64,0,0,1-1.21,2.16,5.75,5.75,0,0,1-6.53,0,2.67,2.67,0,0,1-1.19-2.17v-11.4h12.27V380.5A5,5,0,0,0,444.25,378Zm-11.6,2.48a2.71,2.71,0,0,1,1.2-2.14,5.6,5.6,0,0,1,6.51,0,2.68,2.68,0,0,1,1.22,2.13v8.19h-8.93V380.5Z" transform="translate(-166.39 -365.29)"/><path class="cls-4" d="M317.29,376.06a8.1,8.1,0,0,0-2.45-1.29,9.41,9.41,0,0,0-3-.47,8.7,8.7,0,0,0-3.48.69,10.6,10.6,0,0,0-1,.48V374.3H304v52.3h3.41V408.13a10.08,10.08,0,0,0,1,.47,9,9,0,0,0,3.46.65,8.84,8.84,0,0,0,5.45-1.68,5.47,5.47,0,0,0,2.36-4.52V380.5A5,5,0,0,0,319,378,6.68,6.68,0,0,0,317.29,376.06Zm-2.18,29.15a5.75,5.75,0,0,1-6.53,0,2.66,2.66,0,0,1-1.19-2.17V380.5a2.7,2.7,0,0,1,1.2-2.14,5.6,5.6,0,0,1,6.51,0,2.68,2.68,0,0,1,1.22,2.13v22.55A2.64,2.64,0,0,1,315.11,405.21Z" transform="translate(-166.39 -365.29)"/><line class="cls-5" x1="82.49" y1="8.67" x2="82.49" y2="41.9"/><line class="cls-5" x1="33.22" y1="8.67" x2="33.22" y2="41.9"/></svg>