<svg id="Artwork" xmlns="http://www.w3.org/2000/svg" viewBox="0 0 17.97 18.06"><defs><style>.cls-1{fill:#7d6b67;}</style></defs><title>instagram</title><path class="cls-1" d="M1059.94,2582.11a4.58,4.58,0,0,1,3.28,1.37h5.72v-2.33h0a3.55,3.55,0,0,0-3.55-3.55h-9.71v4.48h-0.73v-4.48h-0.5v4.48h-0.73v-4.39a3.53,3.53,0,0,0-.51.16v4.22h-0.73v-3.83a3.55,3.55,0,0,0-1.5,2.9v2.33h5.7A4.58,4.58,0,0,1,1059.94,2582.11Zm4.31-2.46a0.57,0.57,0,0,1,.57-0.57h1.92a0.57,0.57,0,0,1,.57.57v2a0.57,0.57,0,0,1-.57.57h-1.92a0.57,0.57,0,0,1-.57-0.57v-2Z" transform="translate(-1050.97 -2577.6)"/><path class="cls-1" d="M1062.27,2584a3.57,3.57,0,0,0-.87-0.56,3.53,3.53,0,0,0-2.92,0,3.57,3.57,0,0,0-.87.56A3.54,3.54,0,1,0,1062.27,2584Zm-2.32,5.28a2.62,2.62,0,1,1,2.62-2.62A2.62,2.62,0,0,1,1060,2589.33Z" transform="translate(-1050.97 -2577.6)"/><path class="cls-1" d="M1054.52,2595.66h10.86a3.55,3.55,0,0,0,3.55-3.55V2584h-5.25a4.6,4.6,0,1,1-7.49,0H1051v8.06A3.55,3.55,0,0,0,1054.52,2595.66Z" transform="translate(-1050.97 -2577.6)"/></svg>