<svg id="Artwork" xmlns="http://www.w3.org/2000/svg" viewBox="0 0 19.03 15.46"><defs><style>.cls-1{fill:#7d6b67;}</style></defs><title>twitter</title><path class="cls-1" d="M1012.94,2593.63a11.1,11.1,0,0,0,17.08-9.86,7.93,7.93,0,0,0,1.95-2,7.8,7.8,0,0,1-2.24.61,3.91,3.91,0,0,0,1.72-2.16,7.81,7.81,0,0,1-2.48.95,3.91,3.91,0,0,0-6.65,3.56,11.08,11.08,0,0,1-8-4.08,3.91,3.91,0,0,0,1.21,5.21,3.89,3.89,0,0,1-1.77-.49,3.91,3.91,0,0,0,3.13,3.88,3.91,3.91,0,0,1-1.76.07,3.91,3.91,0,0,0,3.65,2.71A7.85,7.85,0,0,1,1012.94,2593.63Z" transform="translate(-1012.94 -2579.92)"/></svg>