<svg id="Layer_1" data-name="Layer 1" xmlns="http://www.w3.org/2000/svg" xmlns:xlink="http://www.w3.org/1999/xlink" viewBox="0 0 166.26 144.68"><defs><style>.cls-1{fill:#e48628;}.cls-2{clip-path:url(#clip-path);}.cls-3{fill:#d07428;}.cls-4{fill:#fff;}.cls-5{fill:#dcddde;}.cls-6{fill:#3a3b3a;}.cls-7{fill:#ededee;}.cls-8{fill:#34803e;}.cls-9{fill:#579140;}.cls-10{fill:#89c558;}.cls-11{fill:#af2024;}.cls-12{fill:#e12a28;}.cls-13{fill:#9e1d21;}.cls-14{fill:#fef7b7;}.cls-15{fill:#f47a59;}.cls-16{fill:#047c3f;}.cls-17{fill:#9ece7a;}.cls-18{fill:#fdf7bf;}.cls-19{fill:#d6e481;}</style><clipPath id="clip-path" transform="translate(-222.58 -323.55)"><path class="cls-1" d="M346,366.92a2.75,2.75,0,0,1-3.25-2.62l-1.12-22.05a2.75,2.75,0,0,0-3.25-2.62l-9.27,1.51a2.75,2.75,0,0,0-2.25,3.52l5.94,21.27a2.75,2.75,0,0,1-2.25,3.52l-20.08,3.27a3.14,3.14,0,0,0-2.59,3.59l12.58,77.22a3.14,3.14,0,0,0,3.59,2.59l55.6-9.06a3.14,3.14,0,0,0,2.59-3.59l-12.58-77.22a3.14,3.14,0,0,0-3.59-2.59Z"/></clipPath></defs><title>knife_board</title><path class="cls-1" d="M346,366.92a2.75,2.75,0,0,1-3.25-2.62l-1.12-22.05a2.75,2.75,0,0,0-3.25-2.62l-9.27,1.51a2.75,2.75,0,0,0-2.25,3.52l5.94,21.27a2.75,2.75,0,0,1-2.25,3.52l-20.08,3.27a3.14,3.14,0,0,0-2.59,3.59l12.58,77.22a3.14,3.14,0,0,0,3.59,2.59l55.6-9.06a3.14,3.14,0,0,0,2.59-3.59l-12.58-77.22a3.14,3.14,0,0,0-3.59-2.59Z" transform="translate(-222.58 -323.55)"/><g class="cls-2"><path class="cls-3" d="M371.5,461.15l-0.62-.47c2.35-3.09,1-9.13,0-13.53-0.26-1.15-.51-2.23-0.65-3.12-1.28-6.74-3.93-12.93-8.58-20-1.81-2.85-3.88-5.58-5.88-8.23a107.91,107.91,0,0,1-7-10.09c-3-5.12-3.93-10.6-4.88-16.39-0.32-1.95-.7-3.91-1.1-6-1.47-7.55-3-15.35-1.36-22.69,1.76-7.09,6.1-13.29,10.78-19.53l0.63,0.47c-4.63,6.18-8.92,12.3-10.65,19.24-1.6,7.17-.09,14.9,1.37,22.37,0.41,2.08.79,4,1.11,6,0.93,5.72,1.81,11.12,4.78,16.12a107.33,107.33,0,0,0,7,10c2,2.66,4.08,5.41,5.91,8.28,4.71,7.2,7.4,13.47,8.7,20.33,0.14,0.87.38,1.94,0.64,3.08C372.67,451.52,374.08,457.76,371.5,461.15Z" transform="translate(-222.58 -323.55)"/><path class="cls-3" d="M343.56,464l-0.77.13a68.22,68.22,0,0,1-1-8.4c-0.21-5.51.09-11.07,0.38-16.44,0.26-4.85.53-9.87,0.42-14.83-0.09-4-.26-8.15-0.43-12.12-0.09-2-.17-4-0.25-6a89.33,89.33,0,0,0-2.52-16.09c-0.46-2.1-.94-4.28-1.35-6.47l-0.06-.32c-1.36-7.16-3-16.06-1.54-23.18,1.16-5.45,3.78-10.75,6.32-15.89,0.71-1.43,1.41-2.85,2.07-4.25l0.71,0.33c-0.66,1.4-1.36,2.82-2.07,4.26-2.52,5.09-5.12,10.35-6.25,15.7-1.48,7,.2,15.78,1.54,22.87l0.06,0.32c0.41,2.18.89,4.35,1.35,6.44a89.92,89.92,0,0,1,2.54,16.23q0.11,3,.25,6c0.17,4,.35,8.08.44,12.14,0.11,5-.16,10-0.42,14.89-0.29,5.36-.59,10.9-0.38,16.37A67.6,67.6,0,0,0,343.56,464Z" transform="translate(-222.58 -323.55)"/><path class="cls-3" d="M326.92,362.45l-0.46-.63c7.78-5.61,11.88-19.76,10.84-29.44l0.78-.08C339.15,342.2,334.92,356.68,326.92,362.45Z" transform="translate(-222.58 -323.55)"/><path class="cls-3" d="M326.44,353l-0.46-.63c5.55-4,8.26-9.35,7.23-14.28l0.77-.16C335.07,343.19,332.25,348.83,326.44,353Z" transform="translate(-222.58 -323.55)"/><path class="cls-3" d="M341.28,468.23c-2.54-7.09-2.6-14.44-2.67-22.22v-0.27c0-5-.4-10-0.76-14.91-0.18-2.44-.37-5-0.51-7.45-0.18-3.17-.23-6.37-0.27-9.46a110.75,110.75,0,0,0-1.32-18.57c-1.09-6-3.81-11.39-6.43-16.59a84.74,84.74,0,0,1-5.42-12.34l0.75-.24A84.14,84.14,0,0,0,330,378.41c2.65,5.25,5.39,10.68,6.5,16.8a111.33,111.33,0,0,1,1.34,18.7c0,3.08.09,6.27,0.27,9.43,0.14,2.48.33,5,.51,7.44,0.36,4.88.74,9.93,0.76,15V446c0.07,7.71.13,15,2.63,22Z" transform="translate(-222.58 -323.55)"/><path class="cls-3" d="M336.09,459.52l-0.78.08a23.42,23.42,0,0,0-1.16-4.79,29.19,29.19,0,0,1-1.09-4.13,75.67,75.67,0,0,1-.79-15.44c0-2.51.09-5.11,0-7.67,0-1.14-.08-2.29-0.12-3.43-0.23-6.81-.46-13.85-2.41-20.63-2.08-7.7-6.61-14.48-10.77-20.11-4.14-5.36-7.09-10.89-10.22-16.75-0.68-1.28-1.37-2.57-2.09-3.89l0.69-.37c0.71,1.31,1.41,2.61,2.09,3.89,3.11,5.83,6,11.33,10.15,16.65,4.21,5.69,8.78,12.55,10.9,20.37,2,6.87,2.21,14,2.44,20.82,0,1.14.08,2.29,0.12,3.43,0.09,2.57,0,5.18,0,7.71a75.11,75.11,0,0,0,.78,15.29,28.61,28.61,0,0,0,1.06,4A24.35,24.35,0,0,1,336.09,459.52Z" transform="translate(-222.58 -323.55)"/><path class="cls-3" d="M321.16,453l-0.78.1c-1-7.33,1.2-14.51,3.29-21.44a78.16,78.16,0,0,0,3.26-13.81c1.56-13.29-6.46-23.61-14.21-33.58-2-2.62-4.13-5.32-6-8l0.64-.45c1.87,2.69,4,5.39,6,8,7.85,10.1,16,20.55,14.37,34.15a78.69,78.69,0,0,1-3.29,13.94C322.36,438.77,320.22,445.86,321.16,453Z" transform="translate(-222.58 -323.55)"/><path class="cls-3" d="M377.64,458c-4-9.71-6.67-17.38-5.32-27.61,0.93-7,4.42-12.31,8.12-17.91a89.14,89.14,0,0,0,5-8.11l0.69,0.36a89.82,89.82,0,0,1-5,8.18c-3.65,5.52-7.09,10.73-8,17.58-1.32,10,1.35,17.61,5.27,27.21Z" transform="translate(-222.58 -323.55)"/><path class="cls-3" d="M378.65,450.27c-4.21-13-.78-25.51,9.65-35.27l0.53,0.57c-10.2,9.54-13.55,21.78-9.44,34.45Z" transform="translate(-222.58 -323.55)"/><path class="cls-3" d="M357.74,461.29l-0.75-.22c0.52-1.76,1.14-3.41,1.74-5,1.32-3.51,2.57-6.83,2.58-10.85,0-7-2.81-17-8.17-22.56-0.9-1-1.63-1.37-2.06-1.17-1.59.71-1,7.89-.78,11,0.07,0.85.12,1.54,0.13,2a59.51,59.51,0,0,1-1,7.49c-0.93,5.49-1.88,11.16.09,15.28l-0.71.34c-2.08-4.34-1.11-10.14-.16-15.74a59.2,59.2,0,0,0,.95-7.36c0-.4-0.07-1.08-0.13-1.91-0.43-5.47-.69-10.88,1.25-11.74,0.79-.35,1.76.09,2.95,1.35,5.5,5.74,8.38,16,8.39,23.1,0,4.17-1.29,7.55-2.63,11.13C358.87,457.92,358.25,459.55,357.74,461.29Z" transform="translate(-222.58 -323.55)"/><path class="cls-3" d="M355.37,455.62l-0.67-.41c1.89-3.11,3.7-11.47,1.4-14.24a1.33,1.33,0,0,0-1-.7c-0.72.17-1.19,2.54-1.44,3.82-0.06.3-.12,0.58-0.17,0.82-0.53,2.87-1,5.6,0,8.3l-0.73.27c-1.09-2.9-.55-5.86,0-8.73,0.06-.25.11-0.53,0.17-0.82,0.37-1.84.82-4.13,2-4.42a1.84,1.84,0,0,1,1.79,1C359.29,443.58,357.34,452.39,355.37,455.62Z" transform="translate(-222.58 -323.55)"/><path class="cls-3" d="M318.37,435l-0.75-.23c0.48-1.54,1-3,1.48-4.41,2-5.86,3.79-10.92,2.23-17.59-1.42-5.46-5.06-12.26-11-15l0.32-.71c6.17,2.81,9.95,9.83,11.42,15.48,1.61,6.9-.18,12.06-2.25,18C319.35,432,318.85,433.47,318.37,435Z" transform="translate(-222.58 -323.55)"/><path class="cls-3" d="M367,416c-6.16.64-9.68-4.25-12.8-8.56-0.37-.51-0.73-1-1.08-1.48-4.21-5.45-7.1-13.71-8.6-24.55a62.24,62.24,0,0,1-.19-18.31l0.77,0.11a61.53,61.53,0,0,0,.19,18.09c1.48,10.7,4.33,18.84,8.45,24.19,0.36,0.49.72,1,1.09,1.5,3,4.14,6.38,8.83,12.06,8.24,3-.49,4.54-2.49,6.36-5.27,0.51-.89,1-1.79,1.49-2.69,2-3.71,4-7.21,7.12-10.46l0.56,0.55c-3.09,3.17-5,6.63-7,10.29-0.49.9-1,1.81-1.51,2.72C372.09,413.24,370.39,415.46,367,416Z" transform="translate(-222.58 -323.55)"/><path class="cls-3" d="M368.68,401.74a11.88,11.88,0,0,1-8.06-1.64c-5.59-3.3-8-10.54-8.32-16.22-0.24-4.86.66-9.7,1.52-14.39,1-5.44,2-11.07,1.33-16.76l0.78-.1c0.73,5.81-.32,11.5-1.33,17-0.86,4.64-1.74,9.45-1.51,14.21,0.34,5.47,2.61,12.44,8,15.6,2.74,1.81,7.42,2.45,10.55.4a10.46,10.46,0,0,0,2.81-4.27c0.85-1.87,1.73-3.81,3.58-5.09l0.44,0.64c-1.67,1.15-2.51,3-3.31,4.77a11.18,11.18,0,0,1-3.08,4.59A8.64,8.64,0,0,1,368.68,401.74Z" transform="translate(-222.58 -323.55)"/><path class="cls-3" d="M365.2,396.26a4.76,4.76,0,0,1-4.14-1.64c-3.69-3.55-4.91-10.2-4.47-14.87,0.21-3.55.69-7.2,1.15-10.73,0.34-2.64.7-5.37,0.94-8l0.78,0.07c-0.24,2.68-.6,5.42-0.95,8.07-0.46,3.52-.93,7.16-1.15,10.69-0.44,4.64.88,11,4.23,14.24,1.4,1.37,2.77,1.77,4.18,1.23,6-2.32,10.54-20.53,10.71-23.52l0.78,0c-0.18,3.19-4.78,21.72-11.21,24.21A4.33,4.33,0,0,1,365.2,396.26Z" transform="translate(-222.58 -323.55)"/><path class="cls-3" d="M367.68,386.3h-0.06c-0.91.1-2.22-.62-3.3-4.7-1.22-4.73-.57-9.55.05-14.21a45.37,45.37,0,0,0,.58-11.11l0.78-.09a46,46,0,0,1-.58,11.31c-0.62,4.59-1.25,9.33-.07,13.91,0.83,3.15,1.81,4.19,2.45,4.12h0c1-.16,2-2.51,2.16-6.1l0.78,0C370.38,383.19,369.2,386,367.68,386.3Z" transform="translate(-222.58 -323.55)"/></g><path class="cls-4" d="M334.47,345a1.56,1.56,0,1,1-1.29,1.8,1.56,1.56,0,0,1,1.29-1.8h0Zm-0.25-1.54a3.13,3.13,0,1,0,3.59,2.59,3.13,3.13,0,0,0-3.59-2.59h0Z" transform="translate(-222.58 -323.55)"/><path class="cls-5" d="M274.3,323.55c-0.25.32-.53,0.71-0.82,1.16-8.32,12.78-32.27,76.9-32.27,76.9l-1.29,3.45,10.35,3.87,1.29-3.45,13.8,5.15,3.45,1.29C271.38,405,295.87,339.47,274.3,323.55Z" transform="translate(-222.58 -323.55)"/><path class="cls-5" d="M234.12,453.31s-2.51,8.13-6.93,6.39-0.63-10.6-.63-10.6Z" transform="translate(-222.58 -323.55)"/><path class="cls-6" d="M237.27,455.28s-9.87,1.75-14.68-6.6l16.18-44.06,13.8,5.15S244.77,439.05,237.27,455.28Z" transform="translate(-222.58 -323.55)"/><circle class="cls-7" cx="243.37" cy="413.81" r="2.16" transform="translate(-241.14 -312.06) rotate(-2.6)"/><circle class="cls-7" cx="233.19" cy="447.45" r="2.07" transform="translate(-242.67 -312.49) rotate(-2.6)"/><circle class="cls-7" cx="237.57" cy="430.82" r="2.16" transform="translate(-241.91 -312.31) rotate(-2.6)"/><path class="cls-7" d="M273.48,324.7a13.12,13.12,0,0,1,.82-1.16c21.57,15.92-2.91,81.47-5.49,88.37l-3.45-1.29S288.92,351.45,273.48,324.7Z" transform="translate(-222.58 -323.55)"/><path class="cls-8" d="M350.28,395.3a0.81,0.81,0,0,0,1.17.57c0.81-.27,1.63,1.94.65,4.13a15.67,15.67,0,0,1-3.53,5.06l1.25,1a34.6,34.6,0,0,0,2-3.47,3.51,3.51,0,0,1,3.27-2.22c0.65,0.18.79-.87,0.79-0.87s-1.44-1-1.32-.43-0.39.72-1,1.06a4.71,4.71,0,0,0-1.24.88,16.76,16.76,0,0,0,1.59-3.35c0.63-1.86,1.33-5,2.36-5.49l-0.51-.81s-1-.28-0.63.25a1.11,1.11,0,0,1-.1,1.37A17.94,17.94,0,0,0,354,396a11.43,11.43,0,0,1-.82,2.37,4.56,4.56,0,0,0-.64-2.55,1.32,1.32,0,0,1-.24-1.4Z" transform="translate(-222.58 -323.55)"/><path class="cls-9" d="M361.84,391a4.46,4.46,0,0,0,2.12-1.56,3.56,3.56,0,0,0-1.84-1l0.14-.6A3.22,3.22,0,0,0,359,389a0.19,0.19,0,0,1-.3-0.21,2.18,2.18,0,0,1,.4-0.54c0.34-.35.77-0.61,1.14-0.93a4.47,4.47,0,0,0,1.53-3.32l-0.41,0a3.54,3.54,0,0,0-.06-1.81l-0.25.17a5.91,5.91,0,0,0,0-1.61,3.75,3.75,0,0,0-1.66,1.31l0-.65a3.88,3.88,0,0,0-1.53,2.2,3.19,3.19,0,0,0-.07-1.1c-0.9.94-1.71,2-1.52,3.23a8.6,8.6,0,0,1,.21,1.86,0.26,0.26,0,0,1-.52,0c-0.13-.66,0-1.78-0.55-2.27l-0.23.14a2,2,0,0,0-.92-1.09l-0.11.23-0.55-.74a4.29,4.29,0,0,0-.45,3.51l-0.6-.15a8.71,8.71,0,0,0,3,4.5l0.15,0.62a1.82,1.82,0,0,1,1.31-.31c0.46,0,.9.17,1.36,0.24a5,5,0,0,0,3.93-1A0.7,0.7,0,0,1,361.84,391Z" transform="translate(-222.58 -323.55)"/><path class="cls-9" d="M352.25,394.67c0.15-.36.37-0.68,0.54-1a4.21,4.21,0,0,0,.19-3.41,0.59,0.59,0,0,1-.38.2,3.74,3.74,0,0,0-.71-2.09,3,3,0,0,0-1.29,1.21l-0.45-.27a2.71,2.71,0,0,0,.12,3,0.16,0.16,0,0,1-.25.19,1.84,1.84,0,0,1-.33-0.46c-0.19-.36-0.29-0.77-0.45-1.15a3.76,3.76,0,0,0-2.26-2.07l-0.07.34a3,3,0,0,0-1.47-.42l0.07,0.24a5,5,0,0,0-1.29-.42,3.15,3.15,0,0,0,.63,1.66l-0.53-.14a3.26,3.26,0,0,0,1.37,1.79,2.68,2.68,0,0,0-.9-0.23,3.44,3.44,0,0,0,2.19,2,7.22,7.22,0,0,1,1.54.31,0.22,0.22,0,0,1-.11.42c-0.56-.06-1.43-0.44-2-0.14l0.05,0.22a1.72,1.72,0,0,0-1.11.46l0.16,0.14-0.73.25a3.6,3.6,0,0,0,2.69,1.26l-0.27.44a7.32,7.32,0,0,0,4.36-1.24l0.54,0A1.53,1.53,0,0,1,352.25,394.67Z" transform="translate(-222.58 -323.55)"/><path class="cls-9" d="M355.53,400.67c0.3,0.29.54,0.63,0.83,0.93a4.54,4.54,0,0,0,3.36,1.49,0.64,0.64,0,0,1-.06-0.46,4,4,0,0,0,2.38.08,3.22,3.22,0,0,0-.73-1.77l0.44-.35a2.92,2.92,0,0,0-3-1,0.17,0.17,0,0,1-.1-0.32,2,2,0,0,1,.59-0.16c0.44-.05.89,0,1.33,0a4,4,0,0,0,2.95-1.49l-0.31-.19a3.2,3.2,0,0,0,1-1.32l-0.28,0a5.35,5.35,0,0,0,.91-1.14,3.39,3.39,0,0,0-1.91,0l0.34-.48a3.51,3.51,0,0,0-2.32.71,2.88,2.88,0,0,0,.57-0.82,3.7,3.7,0,0,0-2.89,1.44,7.78,7.78,0,0,1-.9,1.44,0.24,0.24,0,0,1-.38-0.27c0.28-.54,1-1.27.89-1.92l-0.24,0a1.85,1.85,0,0,0,0-1.29l-0.21.1,0-.83a3.88,3.88,0,0,0-2.29,2.23l-0.34-.44a7.89,7.89,0,0,0-.41,4.87l-0.25.52A1.65,1.65,0,0,1,355.53,400.67Z" transform="translate(-222.58 -323.55)"/><path class="cls-10" d="M360,382.67l-0.2.37-0.21.43-0.26.57-0.31.68c-0.11.24-.23,0.49-0.35,0.75-0.25.52-.49,1.09-0.7,1.66s-0.44,1.15-.66,1.68-0.43,1-.62,1.45a13.63,13.63,0,0,1-.69,1.38h0l0.17-.39,0.42-1,0.6-1.46c0.22-.53.47-1.09,0.72-1.65s0.49-1.13.7-1.66,0.42-1,.63-1.45,0.39-.75.53-1l0.23-.35h0Z" transform="translate(-222.58 -323.55)"/><path class="cls-10" d="M362.46,389.52a1,1,0,0,0-.36.06l-0.35.12c-0.23.09-.46,0.19-0.69,0.3l-0.35.15a2.5,2.5,0,0,1-.37.12c-0.13,0-.25,0-0.38.05l-0.38,0c-0.25,0-.5,0-0.76,0l-0.75-.07a5.28,5.28,0,0,0-.75,0,2.25,2.25,0,0,0-.37.05l-0.18.05-0.17.07,0,0,0,0a6.63,6.63,0,0,0-.67-1.07c-0.13-.17-0.27-0.33-0.41-0.48l-0.22-.23-0.22-.24a4.05,4.05,0,0,1-.64-1.13,6.08,6.08,0,0,1-.34-1.24h0a7.52,7.52,0,0,0,.42,1.2,5.07,5.07,0,0,0,.29.56,4.13,4.13,0,0,0,.36.51l0.22,0.23,0.23,0.23a5.21,5.21,0,0,1,.41.5,5.62,5.62,0,0,1,.65,1.12l-0.07,0,0.18-.07,0.19,0a2.29,2.29,0,0,1,.38,0,7.11,7.11,0,0,1,.75,0,12.11,12.11,0,0,0,1.5.05l0.37,0,0.36-.06a2.56,2.56,0,0,0,.35-0.1l0.34-.14a7.12,7.12,0,0,1,.71-0.27l0.37-.1a1,1,0,0,1,.38,0h0Z" transform="translate(-222.58 -323.55)"/><path class="cls-10" d="M357.75,384.51l0,0.16v0.16a2.31,2.31,0,0,0,0,.32c0,0.11,0,.21.05,0.32l0.07,0.32a5.24,5.24,0,0,1,.11.65c0,0.11,0,.22,0,0.33a2.08,2.08,0,0,1,0,.33l0,0a2,2,0,0,1,.72-0.56c0.27-.14.56-0.24,0.82-0.37a2,2,0,0,0,.38-0.22,1.52,1.52,0,0,0,.16-0.14,1.68,1.68,0,0,0,.14-0.17c0.09-.12.17-0.25,0.24-0.37l0.1-.2a0.59,0.59,0,0,0,.06-0.21h0a0.6,0.6,0,0,1,0,.23,1.46,1.46,0,0,1-.08.22,3.21,3.21,0,0,1-.22.4,1.22,1.22,0,0,1-.31.36,2.13,2.13,0,0,1-.4.24c-0.28.13-.57,0.22-0.84,0.34a2.79,2.79,0,0,0-.4.2l-0.18.13a1.37,1.37,0,0,0-.15.16l-0.06.06,0-.08a1.22,1.22,0,0,0,0-.32,1.82,1.82,0,0,0,0-.32c0-.21-0.1-0.42-0.15-0.64a4.26,4.26,0,0,1-.1-0.66,2.42,2.42,0,0,1,0-.34,1.41,1.41,0,0,1,.09-0.32h0Z" transform="translate(-222.58 -323.55)"/><path class="cls-10" d="M354,388.67l0.07,0.06a0.7,0.7,0,0,0,.21.1,1.41,1.41,0,0,0,.32.06l0.39,0a3.15,3.15,0,0,1,.4,0l0.18,0,0.15,0.07a0.44,0.44,0,0,1,.11.09,0.39,0.39,0,0,1,.07.08l0,0.08-0.07-.06a0.64,0.64,0,0,0-.2-0.12,1.19,1.19,0,0,0-.32-0.07l-0.39,0-0.4,0a1.22,1.22,0,0,1-.34-0.11l-0.12-.08-0.08-.08Z" transform="translate(-222.58 -323.55)"/><path class="cls-10" d="M357.91,390.19l0.11,0a1.12,1.12,0,0,1,.27.14,3.66,3.66,0,0,1,.33.27c0.11,0.1.23,0.21,0.36,0.3l0.2,0.13,0.2,0.1,0.2,0.06,0.19,0h0.4l-0.11,0a1.33,1.33,0,0,1-.3,0h-0.2a1.17,1.17,0,0,1-.45-0.13l-0.22-.13a8.13,8.13,0,0,1-.65-0.62l-0.13-.1-0.11-.07Z" transform="translate(-222.58 -323.55)"/><path class="cls-10" d="M359.12,390.28l0.09,0,0.1,0,0.12-.06a0.76,0.76,0,0,0,.12-0.09l0.12-.12a2.32,2.32,0,0,0,.21-0.31,3.58,3.58,0,0,1,.21-0.33,1.16,1.16,0,0,1,.25-0.24,0.58,0.58,0,0,1,.12-0.07l0.1,0,0.09,0-0.08,0-0.08.06-0.1.09a2.48,2.48,0,0,0-.4.58l-0.11.17a1.19,1.19,0,0,1-.13.15,0.76,0.76,0,0,1-.15.12,0.86,0.86,0,0,1-.15.08l-0.14,0h-0.2Z" transform="translate(-222.58 -323.55)"/><path class="cls-10" d="M345.48,389.79l0.25,0.25,0.3,0.27,0.39,0.35,0.47,0.41,0.51,0.47c0.35,0.33.75,0.66,1.16,1l1.19,0.94c0.37,0.31.72,0.59,1,.85a10.73,10.73,0,0,1,.93.9h0l-0.27-.23-0.72-.59-1-.84-1.14-1c-0.38-.35-0.78-0.67-1.16-1a13.1,13.1,0,0,1-1-.86c-0.28-.26-0.5-0.5-0.65-0.67l-0.22-.28h0Z" transform="translate(-222.58 -323.55)"/><path class="cls-10" d="M351.56,389.52a0.89,0.89,0,0,0,0,.3c0,0.1,0,.21,0,0.31s0,0.41.07,0.62,0,0.21,0,.32a2.09,2.09,0,0,1,0,.32c0,0.11,0,.21-0.05.32a2.42,2.42,0,0,1-.08.31c-0.06.2-.14,0.4-0.23,0.59l-0.24.58a4.31,4.31,0,0,0-.19.6,1.89,1.89,0,0,0,0,.31c0,0.05,0,.1,0,0.15l0,0.15v0h0a5.65,5.65,0,0,0-1,.27c-0.17.06-.33,0.13-0.49,0.21l-0.24.12-0.24.12a3.37,3.37,0,0,1-1.07.23,5,5,0,0,1-1.08,0h0a6.45,6.45,0,0,0,1.07,0,4.24,4.24,0,0,0,.52-0.09,3.56,3.56,0,0,0,.49-0.16l0.24-.12,0.24-.13a4.31,4.31,0,0,1,.5-0.2,4.65,4.65,0,0,1,1.06-.24l0,0.06v-0.16c0-.05,0-0.11,0-0.16a1.92,1.92,0,0,1,.07-0.31,6.12,6.12,0,0,1,.21-0.6,9.7,9.7,0,0,0,.41-1.19c0-.1,0-0.2.07-0.3s0-.2,0-0.3a2.16,2.16,0,0,0,0-.31c0-.11,0-0.2,0-0.31a5.76,5.76,0,0,1,0-.63,2.46,2.46,0,0,1,0-.32,0.8,0.8,0,0,1,.08-0.31h0Z" transform="translate(-222.58 -323.55)"/><path class="cls-10" d="M346.39,392l0.13,0.06,0.13,0,0.26,0.06,0.27,0,0.27,0a4.08,4.08,0,0,1,.55.08l0.27,0.07,0.26,0.11,0,0a1.7,1.7,0,0,1-.28-0.72c0-.25-0.06-0.51-0.09-0.75a1.66,1.66,0,0,0-.08-0.35,1.36,1.36,0,0,0-.07-0.16l-0.1-.15-0.24-.29a0.94,0.94,0,0,0-.28-0.24h0a0.51,0.51,0,0,1,.18.08l0.15,0.12a2.6,2.6,0,0,1,.27.27,1,1,0,0,1,.21.34,1.79,1.79,0,0,1,.1.38c0,0.26,0,.51.06,0.76a2.38,2.38,0,0,0,.06.37,1,1,0,0,0,.15.34l0,0.08-0.07,0a1,1,0,0,0-.25-0.1l-0.27,0-0.55,0a3.46,3.46,0,0,1-.55-0.08l-0.27-.09a1.15,1.15,0,0,1-.24-0.15h0Z" transform="translate(-222.58 -323.55)"/><path class="cls-10" d="M348.8,396l0.06,0a0.6,0.6,0,0,0,.13-0.14,1.2,1.2,0,0,0,.13-0.24l0.11-.3a2.53,2.53,0,0,1,.14-0.31,0.88,0.88,0,0,1,.18-0.24,0.46,0.46,0,0,1,.18-0.11l0.08,0-0.07,0a0.55,0.55,0,0,0-.14.13,2.24,2.24,0,0,0-.24.54,2.82,2.82,0,0,1-.13.31,1,1,0,0,1-.18.24,0.5,0.5,0,0,1-.18.12Z" transform="translate(-222.58 -323.55)"/><path class="cls-10" d="M351,393.32l0-.08a0.92,0.92,0,0,1,.17-0.19,3,3,0,0,1,.29-0.2c0.11-.07.22-0.13,0.33-0.21a1.51,1.51,0,0,0,.27-0.26c0-.05.07-0.1,0.1-0.15a1.15,1.15,0,0,0,.07-0.14,1.72,1.72,0,0,0,.08-0.23l0-.09v0.09a1.08,1.08,0,0,1,0,.25,1.23,1.23,0,0,1-.06.16,1.15,1.15,0,0,1-.09.17,1.2,1.2,0,0,1-.13.16l-0.16.14a6,6,0,0,1-.66.36,1.3,1.3,0,0,0-.2.14Z" transform="translate(-222.58 -323.55)"/><path class="cls-10" d="M351.35,392.38s0,0,0-.08a0.91,0.91,0,0,0,0-.19,1.14,1.14,0,0,0-.31-0.48,2.83,2.83,0,0,1-.21-0.25,1,1,0,0,1-.13-0.27,0.47,0.47,0,0,1,0-.12,0.42,0.42,0,0,1,0-.09s0-.08,0-0.08l0,0.07a0.39,0.39,0,0,0,0,.08s0,0.07,0,.1a2.21,2.21,0,0,0,.37.46l0.11,0.13a1,1,0,0,1,.09.14,0.75,0.75,0,0,1,.08.29,0.65,0.65,0,0,1,0,.21Z" transform="translate(-222.58 -323.55)"/><path class="cls-10" d="M362.58,396.32l-0.33.12-0.37.15-0.48.21-0.57.25-0.64.26c-0.45.18-.91,0.4-1.37,0.64l-1.35.68c-0.44.21-.84,0.4-1.2,0.55a10.74,10.74,0,0,1-1.2.46h0l0.32-.15,0.84-.41,1.19-.57,1.38-.62c0.47-.2.94-0.42,1.37-0.64a13.11,13.11,0,0,1,1.2-.55c0.36-.15.67-0.24,0.88-0.31l0.34-.08h0Z" transform="translate(-222.58 -323.55)"/><path class="cls-10" d="M360.24,402a0.89,0.89,0,0,0-.26-0.17l-0.29-.12c-0.19-.08-0.39-0.14-0.59-0.2l-0.3-.1a2.07,2.07,0,0,1-.29-0.13c-0.09-.06-0.18-0.11-0.27-0.18a2.42,2.42,0,0,1-.24-0.21c-0.16-.14-0.3-0.3-0.44-0.46l-0.43-.47a4.3,4.3,0,0,0-.46-0.43,1.89,1.89,0,0,0-.26-0.17l-0.14-.07-0.14,0,0,0v0a5.65,5.65,0,0,0,.19-1c0-.18,0-0.35,0-0.53s0-.18,0-0.26,0-.18,0-0.27a3.37,3.37,0,0,1,.24-1.06,5,5,0,0,1,.5-1h0a6.45,6.45,0,0,0-.41,1,4.24,4.24,0,0,0-.14.51,3.56,3.56,0,0,0-.06.52c0,0.09,0,.18,0,0.26s0,0.18,0,.27a4.28,4.28,0,0,1,0,.54,4.64,4.64,0,0,1-.23,1.06l0-.06,0.15,0.06,0.14,0.08a1.92,1.92,0,0,1,.26.19,6.14,6.14,0,0,1,.45.44,9.7,9.7,0,0,0,.9.87l0.25,0.19,0.26,0.17a2.16,2.16,0,0,0,.27.13l0.29,0.1a5.79,5.79,0,0,1,.59.23l0.28,0.15a0.8,0.8,0,0,1,.25.2h0Z" transform="translate(-222.58 -323.55)"/><path class="cls-10" d="M360.15,396.19l-0.11.09-0.09.1a2,2,0,0,0-.17.21l-0.15.23-0.14.24a4.07,4.07,0,0,1-.31.46l-0.18.21a1.86,1.86,0,0,1-.21.19l0,0a1.7,1.7,0,0,1,.77,0c0.25,0.07.48,0.16,0.72,0.23a1.66,1.66,0,0,0,.36.07h0.18l0.18,0,0.36-.09a0.94,0.94,0,0,0,.33-0.16h0a0.51,0.51,0,0,1-.15.13l-0.17.09a2.6,2.6,0,0,1-.36.13,1,1,0,0,1-.39.05,1.8,1.8,0,0,1-.39-0.07c-0.25-.08-0.48-0.18-0.71-0.27a2.39,2.39,0,0,0-.36-0.1l-0.18,0a1.12,1.12,0,0,0-.18,0h-0.09l0.07,0a1,1,0,0,0,.2-0.18,1.44,1.44,0,0,0,.16-0.22c0.09-.16.17-0.32,0.26-0.48a3.46,3.46,0,0,1,.31-0.47l0.2-.2a1.15,1.15,0,0,1,.24-0.15h0Z" transform="translate(-222.58 -323.55)"/><path class="cls-10" d="M355.5,396.68l0,0.08a0.6,0.6,0,0,0,.08.18,1.21,1.21,0,0,0,.17.22l0.23,0.23a2.54,2.54,0,0,1,.22.25,0.88,0.88,0,0,1,.14.27,0.46,0.46,0,0,1,0,.21l0,0.08v-0.08a0.55,0.55,0,0,0-.06-0.18,2.24,2.24,0,0,0-.39-0.45,2.83,2.83,0,0,1-.22-0.25,1,1,0,0,1-.14-0.26,0.5,0.5,0,0,1,0-.21v-0.08Z" transform="translate(-222.58 -323.55)"/><path class="cls-10" d="M357,399.81l0.05,0.08a0.92,0.92,0,0,1,.09.24,3,3,0,0,1,.05.35c0,0.13,0,.26.05,0.39a1.5,1.5,0,0,0,.12.36c0,0.05.06,0.11,0.09,0.15a1.14,1.14,0,0,0,.1.13,1.71,1.71,0,0,0,.17.17l0.07,0.07-0.08,0a1.08,1.08,0,0,1-.21-0.14,1.23,1.23,0,0,1-.12-0.12,1.16,1.16,0,0,1-.12-0.15,1.21,1.21,0,0,1-.09-0.19,1.43,1.43,0,0,1-.06-0.2,6,6,0,0,1,0-.75,1.3,1.3,0,0,0,0-.24Z" transform="translate(-222.58 -323.55)"/><path class="cls-10" d="M357.75,400.54l0.07,0a0.91,0.91,0,0,0,.19.06,1.14,1.14,0,0,0,.57-0.07l0.32-.08a1,1,0,0,1,.3,0l0.11,0,0.08,0,0.07,0h-0.27a2.21,2.21,0,0,0-.57.14l-0.16,0-0.17,0a0.74,0.74,0,0,1-.3-0.05,0.65,0.65,0,0,1-.18-0.11Z" transform="translate(-222.58 -323.55)"/><circle class="cls-11" cx="110.8" cy="72.28" r="13.06"/><circle class="cls-12" cx="110.8" cy="72.28" r="11.87"/><path class="cls-13" d="M337.66,390.26a3.64,3.64,0,0,0-.46-3.13,5,5,0,0,0-4-2,5.38,5.38,0,0,0-.69,0,4.37,4.37,0,0,0-3.56,2.46c-0.78,1.86.3,4.74,2.7,4,0.28-.09,1.09-0.36.67-0.77a0.85,0.85,0,0,1,.83-1.23,1,1,0,0,1,1,1.44c-0.3.46,0.33,0.61,0.33,0.61a2.83,2.83,0,0,0,2.35-.14A2.54,2.54,0,0,0,337.66,390.26Z" transform="translate(-222.58 -323.55)"/><path class="cls-14" d="M336.31,390.39a5.58,5.58,0,0,1-1.36,0,5.58,5.58,0,0,1,1-1A0.52,0.52,0,0,1,336.31,390.39Z" transform="translate(-222.58 -323.55)"/><path class="cls-14" d="M335.49,388.74a5.59,5.59,0,0,1-1.12.77,5.59,5.59,0,0,1,.25-1.34A0.52,0.52,0,1,1,335.49,388.74Z" transform="translate(-222.58 -323.55)"/><path class="cls-14" d="M333.72,387.63a5.59,5.59,0,0,1-.42,1.3,5.59,5.59,0,0,1-.61-1.21A0.52,0.52,0,0,1,333.72,387.63Z" transform="translate(-222.58 -323.55)"/><path class="cls-14" d="M331.93,387.94a5.58,5.58,0,0,1,.27,1.33,5.58,5.58,0,0,1-1.13-.76A0.52,0.52,0,0,1,331.93,387.94Z" transform="translate(-222.58 -323.55)"/><path class="cls-14" d="M330.59,389.24a5.59,5.59,0,0,1,.92,1,5.59,5.59,0,0,1-1.36-.06A0.52,0.52,0,1,1,330.59,389.24Z" transform="translate(-222.58 -323.55)"/><path class="cls-13" d="M327.81,391.55a3.64,3.64,0,0,0-3.13.46,5,5,0,0,0-2,4,5.38,5.38,0,0,0,0,.69,4.37,4.37,0,0,0,2.46,3.56c1.86,0.78,4.74-.3,4-2.7-0.09-.28-0.36-1.09-0.77-0.67a0.85,0.85,0,0,1-1.23-.83,1,1,0,0,1,1.44-1c0.46,0.3.61-.33,0.61-0.33a2.83,2.83,0,0,0-.14-2.35A2.54,2.54,0,0,0,327.81,391.55Z" transform="translate(-222.58 -323.55)"/><path class="cls-14" d="M327.94,392.9a5.59,5.59,0,0,1,0,1.36,5.58,5.58,0,0,1-1-1A0.52,0.52,0,1,1,327.94,392.9Z" transform="translate(-222.58 -323.55)"/><path class="cls-14" d="M326.28,393.71a5.59,5.59,0,0,1,.77,1.12,5.58,5.58,0,0,1-1.34-.25A0.52,0.52,0,1,1,326.28,393.71Z" transform="translate(-222.58 -323.55)"/><path class="cls-14" d="M325.18,395.49a5.59,5.59,0,0,1,1.3.42,5.58,5.58,0,0,1-1.21.61A0.52,0.52,0,1,1,325.18,395.49Z" transform="translate(-222.58 -323.55)"/><path class="cls-14" d="M325.49,397.28a5.59,5.59,0,0,1,1.33-.27,5.59,5.59,0,0,1-.76,1.13A0.52,0.52,0,0,1,325.49,397.28Z" transform="translate(-222.58 -323.55)"/><path class="cls-14" d="M326.79,398.62a5.59,5.59,0,0,1,1-.92,5.59,5.59,0,0,1-.06,1.36A0.52,0.52,0,0,1,326.79,398.62Z" transform="translate(-222.58 -323.55)"/><path class="cls-13" d="M329.1,401.39a3.64,3.64,0,0,0,.46,3.13,5,5,0,0,0,4,2,5.37,5.37,0,0,0,.69,0,4.37,4.37,0,0,0,3.56-2.46c0.78-1.86-.3-4.74-2.7-4-0.28.09-1.09,0.36-.67,0.77a0.85,0.85,0,0,1-.83,1.23,1,1,0,0,1-1-1.44c0.3-.46-0.33-0.61-0.33-0.61a2.83,2.83,0,0,0-2.35.14A2.54,2.54,0,0,0,329.1,401.39Z" transform="translate(-222.58 -323.55)"/><path class="cls-14" d="M330.45,401.27a5.58,5.58,0,0,1,1.36,0,5.58,5.58,0,0,1-1,1A0.52,0.52,0,1,1,330.45,401.27Z" transform="translate(-222.58 -323.55)"/><path class="cls-14" d="M331.26,402.92a5.58,5.58,0,0,1,1.12-.77,5.58,5.58,0,0,1-.25,1.34A0.52,0.52,0,0,1,331.26,402.92Z" transform="translate(-222.58 -323.55)"/><path class="cls-14" d="M333,404a5.59,5.59,0,0,1,.42-1.3,5.58,5.58,0,0,1,.61,1.21A0.52,0.52,0,0,1,333,404Z" transform="translate(-222.58 -323.55)"/><path class="cls-14" d="M334.83,403.72a5.59,5.59,0,0,1-.27-1.33,5.58,5.58,0,0,1,1.13.76A0.52,0.52,0,1,1,334.83,403.72Z" transform="translate(-222.58 -323.55)"/><path class="cls-14" d="M336.17,402.42a5.58,5.58,0,0,1-.92-1,5.58,5.58,0,0,1,1.36.06A0.52,0.52,0,1,1,336.17,402.42Z" transform="translate(-222.58 -323.55)"/><path class="cls-13" d="M338.94,400.11a3.64,3.64,0,0,0,3.13-.46,5,5,0,0,0,2-4,5.37,5.37,0,0,0,0-.69,4.37,4.37,0,0,0-2.46-3.56c-1.86-.78-4.74.3-4,2.7,0.09,0.28.36,1.09,0.77,0.67a0.85,0.85,0,0,1,1.23.83,1,1,0,0,1-1.44,1c-0.46-.3-0.61.33-0.61,0.33a2.83,2.83,0,0,0,.14,2.35A2.54,2.54,0,0,0,338.94,400.11Z" transform="translate(-222.58 -323.55)"/><path class="cls-14" d="M338.82,398.76a5.59,5.59,0,0,1,0-1.36,5.59,5.59,0,0,1,1,1A0.52,0.52,0,0,1,338.82,398.76Z" transform="translate(-222.58 -323.55)"/><path class="cls-14" d="M340.47,397.94a5.59,5.59,0,0,1-.77-1.12,5.59,5.59,0,0,1,1.34.25A0.52,0.52,0,0,1,340.47,397.94Z" transform="translate(-222.58 -323.55)"/><path class="cls-14" d="M341.58,396.17a5.59,5.59,0,0,1-1.3-.42,5.58,5.58,0,0,1,1.21-.61A0.52,0.52,0,0,1,341.58,396.17Z" transform="translate(-222.58 -323.55)"/><path class="cls-14" d="M341.27,394.38a5.58,5.58,0,0,1-1.33.27,5.58,5.58,0,0,1,.76-1.13A0.52,0.52,0,1,1,341.27,394.38Z" transform="translate(-222.58 -323.55)"/><path class="cls-14" d="M340,393a5.59,5.59,0,0,1-1,.92,5.59,5.59,0,0,1,.06-1.36A0.52,0.52,0,1,1,340,393Z" transform="translate(-222.58 -323.55)"/><circle class="cls-15" cx="110.8" cy="72.28" r="3.23"/><circle class="cls-11" cx="110.66" cy="89.79" r="13.06"/><circle class="cls-12" cx="110.66" cy="89.79" r="11.87"/><path class="cls-13" d="M337.53,407.78a3.64,3.64,0,0,0-.46-3.13,5,5,0,0,0-4-2,5.38,5.38,0,0,0-.69,0,4.37,4.37,0,0,0-3.56,2.46c-0.78,1.86.3,4.74,2.7,4,0.28-.09,1.09-0.36.67-0.77a0.85,0.85,0,0,1,.83-1.23,1,1,0,0,1,1,1.44c-0.3.46,0.33,0.61,0.33,0.61a2.83,2.83,0,0,0,2.35-.14A2.54,2.54,0,0,0,337.53,407.78Z" transform="translate(-222.58 -323.55)"/><path class="cls-14" d="M336.17,407.9a5.58,5.58,0,0,1-1.36,0,5.58,5.58,0,0,1,1-1A0.52,0.52,0,0,1,336.17,407.9Z" transform="translate(-222.58 -323.55)"/><path class="cls-14" d="M335.36,406.25a5.59,5.59,0,0,1-1.12.77,5.59,5.59,0,0,1,.25-1.34A0.52,0.52,0,1,1,335.36,406.25Z" transform="translate(-222.58 -323.55)"/><path class="cls-14" d="M333.59,405.14a5.59,5.59,0,0,1-.42,1.3,5.59,5.59,0,0,1-.61-1.21A0.52,0.52,0,0,1,333.59,405.14Z" transform="translate(-222.58 -323.55)"/><path class="cls-14" d="M331.8,405.45a5.58,5.58,0,0,1,.27,1.33,5.58,5.58,0,0,1-1.13-.76A0.52,0.52,0,1,1,331.8,405.45Z" transform="translate(-222.58 -323.55)"/><path class="cls-14" d="M330.45,406.75a5.59,5.59,0,0,1,.92,1,5.59,5.59,0,0,1-1.36-.06A0.52,0.52,0,1,1,330.45,406.75Z" transform="translate(-222.58 -323.55)"/><path class="cls-13" d="M327.68,409.06a3.64,3.64,0,0,0-3.13.46,5,5,0,0,0-2,4,5.38,5.38,0,0,0,0,.69,4.37,4.37,0,0,0,2.46,3.56c1.86,0.78,4.74-.3,4-2.7-0.09-.28-0.36-1.09-0.77-0.67a0.85,0.85,0,0,1-1.23-.83,1,1,0,0,1,1.44-1c0.46,0.3.61-.33,0.61-0.33a2.83,2.83,0,0,0-.14-2.35A2.54,2.54,0,0,0,327.68,409.06Z" transform="translate(-222.58 -323.55)"/><path class="cls-14" d="M327.81,410.41a5.59,5.59,0,0,1,0,1.36,5.58,5.58,0,0,1-1-1A0.52,0.52,0,1,1,327.81,410.41Z" transform="translate(-222.58 -323.55)"/><path class="cls-14" d="M326.15,411.23a5.59,5.59,0,0,1,.77,1.12,5.58,5.58,0,0,1-1.34-.25A0.52,0.52,0,1,1,326.15,411.23Z" transform="translate(-222.58 -323.55)"/><path class="cls-14" d="M325,413a5.59,5.59,0,0,1,1.3.42,5.58,5.58,0,0,1-1.21.61A0.52,0.52,0,1,1,325,413Z" transform="translate(-222.58 -323.55)"/><path class="cls-14" d="M325.35,414.79a5.59,5.59,0,0,1,1.33-.27,5.59,5.59,0,0,1-.76,1.13A0.52,0.52,0,0,1,325.35,414.79Z" transform="translate(-222.58 -323.55)"/><path class="cls-14" d="M326.65,416.13a5.59,5.59,0,0,1,1-.92,5.59,5.59,0,0,1-.06,1.36A0.52,0.52,0,0,1,326.65,416.13Z" transform="translate(-222.58 -323.55)"/><path class="cls-13" d="M329,418.91a3.64,3.64,0,0,0,.46,3.13,5,5,0,0,0,4,2,5.37,5.37,0,0,0,.69,0,4.37,4.37,0,0,0,3.56-2.46c0.78-1.86-.3-4.74-2.7-4-0.28.09-1.09,0.36-.67,0.77a0.85,0.85,0,0,1-.83,1.23,1,1,0,0,1-1-1.44c0.3-.46-0.33-0.61-0.33-0.61a2.83,2.83,0,0,0-2.35.14A2.54,2.54,0,0,0,329,418.91Z" transform="translate(-222.58 -323.55)"/><path class="cls-14" d="M330.32,418.78a5.58,5.58,0,0,1,1.36,0,5.58,5.58,0,0,1-1,1A0.52,0.52,0,1,1,330.32,418.78Z" transform="translate(-222.58 -323.55)"/><path class="cls-14" d="M331.13,420.43a5.58,5.58,0,0,1,1.12-.77A5.58,5.58,0,0,1,332,421,0.52,0.52,0,0,1,331.13,420.43Z" transform="translate(-222.58 -323.55)"/><path class="cls-14" d="M332.9,421.54a5.59,5.59,0,0,1,.42-1.3,5.58,5.58,0,0,1,.61,1.21A0.52,0.52,0,0,1,332.9,421.54Z" transform="translate(-222.58 -323.55)"/><path class="cls-14" d="M334.69,421.23a5.59,5.59,0,0,1-.27-1.33,5.58,5.58,0,0,1,1.13.76A0.52,0.52,0,0,1,334.69,421.23Z" transform="translate(-222.58 -323.55)"/><path class="cls-14" d="M336,419.93a5.58,5.58,0,0,1-.92-1,5.58,5.58,0,0,1,1.36.06A0.52,0.52,0,1,1,336,419.93Z" transform="translate(-222.58 -323.55)"/><path class="cls-13" d="M338.81,417.62a3.64,3.64,0,0,0,3.13-.46,5,5,0,0,0,2-4,5.37,5.37,0,0,0,0-.69,4.37,4.37,0,0,0-2.46-3.56c-1.86-.78-4.74.3-4,2.7,0.09,0.28.36,1.09,0.77,0.67a0.85,0.85,0,0,1,1.23.83,1,1,0,0,1-1.44,1c-0.46-.3-0.61.33-0.61,0.33a2.83,2.83,0,0,0,.14,2.35A2.54,2.54,0,0,0,338.81,417.62Z" transform="translate(-222.58 -323.55)"/><path class="cls-14" d="M338.68,416.27a5.59,5.59,0,0,1,0-1.36,5.59,5.59,0,0,1,1,1A0.52,0.52,0,0,1,338.68,416.27Z" transform="translate(-222.58 -323.55)"/><path class="cls-14" d="M340.34,415.45a5.59,5.59,0,0,1-.77-1.12,5.59,5.59,0,0,1,1.34.25A0.52,0.52,0,0,1,340.34,415.45Z" transform="translate(-222.58 -323.55)"/><path class="cls-14" d="M341.44,413.68a5.59,5.59,0,0,1-1.3-.42,5.58,5.58,0,0,1,1.21-.61A0.52,0.52,0,0,1,341.44,413.68Z" transform="translate(-222.58 -323.55)"/><path class="cls-14" d="M341.14,411.89a5.58,5.58,0,0,1-1.33.27,5.58,5.58,0,0,1,.76-1.13A0.52,0.52,0,1,1,341.14,411.89Z" transform="translate(-222.58 -323.55)"/><path class="cls-14" d="M339.84,410.55a5.59,5.59,0,0,1-1,.92,5.59,5.59,0,0,1,.06-1.36A0.52,0.52,0,1,1,339.84,410.55Z" transform="translate(-222.58 -323.55)"/><circle class="cls-15" cx="110.66" cy="89.79" r="3.23"/><path class="cls-16" d="M352.92,439l1.59,0.58-0.36.6a0.53,0.53,0,0,1-.63.22l-0.28-.1a0.53,0.53,0,0,1-.35-0.51Z" transform="translate(-222.58 -323.55)"/><path class="cls-16" d="M355.61,439.91l1.22,0.22-0.19.48a0.39,0.39,0,0,1-.43.24l-0.21,0a0.39,0.39,0,0,1-.31-0.33Z" transform="translate(-222.58 -323.55)"/><path class="cls-16" d="M358.51,440.38l0.64-.05,0,0.26a0.2,0.2,0,0,1-.18.17h-0.11a0.2,0.2,0,0,1-.2-0.12Z" transform="translate(-222.58 -323.55)"/><path class="cls-16" d="M360.66,439.61l1.59-.58,0.11,0.69a0.53,0.53,0,0,1-.34.57l-0.28.1a0.53,0.53,0,0,1-.59-0.17Z" transform="translate(-222.58 -323.55)"/><circle class="cls-16" cx="135.03" cy="105.11" r="11.95"/><circle class="cls-17" cx="135.03" cy="105.11" r="11.14"/><circle class="cls-18" cx="135.03" cy="105.11" r="8.58"/><path class="cls-19" d="M357.29,422.16s-0.06,2,0,2.92a1.81,1.81,0,0,1-.83,1.6,0.79,0.79,0,0,1-.71.11h0a0.79,0.79,0,0,1-.5-0.51,1.81,1.81,0,0,1,.3-1.77c0.6-.74,1.7-2.36,1.74-2.34h0Z" transform="translate(-222.58 -323.55)"/><path class="cls-19" d="M356.74,421.56s-0.7,1.31-1.18,2.14a1.81,1.81,0,0,1-1.55.91,0.79,0.79,0,0,1-.66-0.29h0a0.79,0.79,0,0,1-.15-0.7,1.81,1.81,0,0,1,1.2-1.34c0.91-.31,2.3-0.77,2.33-0.73h0Z" transform="translate(-222.58 -323.55)"/><path class="cls-19" d="M357.94,422.16s0.06,2,0,2.92a1.81,1.81,0,0,0,.83,1.6,0.79,0.79,0,0,0,.71.11h0a0.79,0.79,0,0,0,.5-0.51,1.81,1.81,0,0,0-.3-1.77c-0.6-.74-1.7-2.36-1.74-2.34h0Z" transform="translate(-222.58 -323.55)"/><path class="cls-19" d="M358.49,421.56s0.7,1.31,1.18,2.14a1.81,1.81,0,0,0,1.55.91,0.79,0.79,0,0,0,.66-0.29h0a0.79,0.79,0,0,0,.15-0.7,1.81,1.81,0,0,0-1.2-1.34c-0.91-.31-2.3-0.77-2.33-0.73h0Z" transform="translate(-222.58 -323.55)"/><path class="cls-19" d="M352.26,432.33s1.73-.93,2.54-1.44a1.81,1.81,0,0,1,1.8-.08,0.79,0.79,0,0,1,.45.56h0a0.79,0.79,0,0,1-.19.69,1.81,1.81,0,0,1-1.69.62c-0.95-.15-2.89-0.29-2.9-0.34v0Z" transform="translate(-222.58 -323.55)"/><path class="cls-19" d="M352,433.11s1.48,0,2.44,0A1.81,1.81,0,0,1,356,434a0.79,0.79,0,0,1,.08.71h0a0.79,0.79,0,0,1-.53.48,1.81,1.81,0,0,1-1.76-.37c-0.72-.63-1.82-1.6-1.8-1.65v0Z" transform="translate(-222.58 -323.55)"/><path class="cls-19" d="M351.93,431.77s1.67-1,2.52-1.48a1.81,1.81,0,0,0,1-1.51,0.79,0.79,0,0,0-.26-0.67h0a0.79,0.79,0,0,0-.69-0.18,1.81,1.81,0,0,0-1.38,1.15c-0.34.9-1.19,2.65-1.16,2.68h0Z" transform="translate(-222.58 -323.55)"/><path class="cls-19" d="M351.14,431.59s0.78-1.26,1.26-2.09a1.81,1.81,0,0,0,0-1.8,0.79,0.79,0,0,0-.58-0.43h0a0.79,0.79,0,0,0-.68.22,1.81,1.81,0,0,0-.56,1.71c0.19,0.94.48,2.38,0.53,2.38h0Z" transform="translate(-222.58 -323.55)"/><path class="cls-19" d="M363.58,431.61s-1.67-1-2.52-1.48a1.81,1.81,0,0,1-1-1.51,0.79,0.79,0,0,1,.26-0.67h0a0.79,0.79,0,0,1,.69-0.18,1.81,1.81,0,0,1,1.38,1.15c0.34,0.9,1.19,2.65,1.16,2.68h0Z" transform="translate(-222.58 -323.55)"/><path class="cls-19" d="M364.38,431.43s-0.78-1.26-1.26-2.09a1.81,1.81,0,0,1,0-1.8,0.79,0.79,0,0,1,.58-0.43h0a0.79,0.79,0,0,1,.68.22,1.81,1.81,0,0,1,.56,1.71c-0.19.94-.48,2.38-0.53,2.38h0Z" transform="translate(-222.58 -323.55)"/><path class="cls-19" d="M363.26,432.17s-1.73-.93-2.54-1.44a1.81,1.81,0,0,0-1.8-.08,0.79,0.79,0,0,0-.45.56h0a0.79,0.79,0,0,0,.19.69,1.81,1.81,0,0,0,1.69.62c0.95-.15,2.89-0.29,2.9-0.34v0Z" transform="translate(-222.58 -323.55)"/><path class="cls-19" d="M363.5,432.95s-1.48,0-2.44,0a1.81,1.81,0,0,0-1.56.89,0.79,0.79,0,0,0-.08.71h0a0.79,0.79,0,0,0,.53.48,1.81,1.81,0,0,0,1.76-.37c0.72-.63,1.82-1.6,1.8-1.65v0Z" transform="translate(-222.58 -323.55)"/><path class="cls-16" d="M358.54,417.37h-1.69l0.14-.69a0.53,0.53,0,0,1,.52-0.42h0.3a0.53,0.53,0,0,1,.5.36Z" transform="translate(-222.58 -323.55)"/><path class="cls-16" d="M355.7,417.42l-1.22.22v-0.51a0.39,0.39,0,0,1,.32-0.37l0.21,0a0.39,0.39,0,0,1,.41.2Z" transform="translate(-222.58 -323.55)"/><path class="cls-16" d="M352.81,418l-0.58.27-0.06-.26a0.2,0.2,0,0,1,.11-0.23l0.1,0a0.2,0.2,0,0,1,.23,0Z" transform="translate(-222.58 -323.55)"/><path class="cls-16" d="M351.06,419.44l-1.3,1.09-0.34-.61a0.53,0.53,0,0,1,.12-0.66l0.23-.19a0.53,0.53,0,0,1,.62,0Z" transform="translate(-222.58 -323.55)"/><path class="cls-16" d="M348.92,421.3l-0.8.95-0.32-.4a0.39,0.39,0,0,1,0-.49l0.14-.17a0.39,0.39,0,0,1,.44-0.11Z" transform="translate(-222.58 -323.55)"/><path class="cls-16" d="M347.06,423.58l-0.27.58-0.21-.16a0.2,0.2,0,0,1-.06-0.24l0-.1a0.2,0.2,0,0,1,.2-0.11Z" transform="translate(-222.58 -323.55)"/><path class="cls-16" d="M346.66,425.83l-0.29,1.67-0.65-.25a0.53,0.53,0,0,1-.33-0.58l0.05-.29a0.53,0.53,0,0,1,.44-0.43Z" transform="translate(-222.58 -323.55)"/><path class="cls-16" d="M346.22,428.63v1.24l-0.5-.1a0.39,0.39,0,0,1-.31-0.38v-0.22a0.39,0.39,0,0,1,.27-0.37Z" transform="translate(-222.58 -323.55)"/><path class="cls-16" d="M346.26,431.57l0.16,0.62h-0.26a0.2,0.2,0,0,1-.2-0.15l0-.11a0.2,0.2,0,0,1,.09-0.22Z" transform="translate(-222.58 -323.55)"/><path class="cls-16" d="M347.4,433.55l0.85,1.47-0.66.22A0.53,0.53,0,0,1,347,435l-0.15-.26a0.53,0.53,0,0,1,.06-0.61Z" transform="translate(-222.58 -323.55)"/><path class="cls-16" d="M348.86,436l0.8,0.95-0.45.25a0.39,0.39,0,0,1-.48-0.09l-0.14-.17a0.39,0.39,0,0,1,0-.45Z" transform="translate(-222.58 -323.55)"/><path class="cls-16" d="M350.78,438.21l0.52,0.37-0.19.18a0.2,0.2,0,0,1-.25,0l-0.09-.06a0.2,0.2,0,0,1-.07-0.22Z" transform="translate(-222.58 -323.55)"/><path class="cls-16" d="M363.31,438.59l1.07-.62,0.16,0.49a0.39,0.39,0,0,1-.17.46l-0.19.11a0.39,0.39,0,0,1-.45,0Z" transform="translate(-222.58 -323.55)"/><path class="cls-16" d="M365.83,437.08l0.46-.45,0.14,0.22a0.2,0.2,0,0,1,0,.25l-0.08.08a0.2,0.2,0,0,1-.23,0Z" transform="translate(-222.58 -323.55)"/><path class="cls-16" d="M367,435.11l0.85-1.47,0.53,0.46a0.53,0.53,0,0,1,.11.66l-0.15.26a0.53,0.53,0,0,1-.56.25Z" transform="translate(-222.58 -323.55)"/><path class="cls-16" d="M368.35,432.62l0.42-1.16,0.44,0.27a0.39,0.39,0,0,1,.16.46l-0.07.2a0.39,0.39,0,0,1-.38.25Z" transform="translate(-222.58 -323.55)"/><path class="cls-16" d="M369.32,429.85l0.06-.64,0.25,0.08a0.2,0.2,0,0,1,.14.21v0.11a0.2,0.2,0,0,1-.15.17Z" transform="translate(-222.58 -323.55)"/><path class="cls-16" d="M368.93,427.6l-0.29-1.67,0.7,0a0.53,0.53,0,0,1,.51.43l0.05,0.29a0.53,0.53,0,0,1-.27.56Z" transform="translate(-222.58 -323.55)"/><path class="cls-16" d="M368.38,424.81L368,423.65l0.51-.08a0.39,0.39,0,0,1,.42.25L369,424a0.39,0.39,0,0,1-.12.44Z" transform="translate(-222.58 -323.55)"/><path class="cls-16" d="M367.34,422.06l-0.36-.53,0.24-.1a0.2,0.2,0,0,1,.24.07l0.06,0.09a0.2,0.2,0,0,1,0,.23Z" transform="translate(-222.58 -323.55)"/><path class="cls-16" d="M365.59,420.6l-1.3-1.09,0.55-.44a0.53,0.53,0,0,1,.67,0l0.23,0.19a0.53,0.53,0,0,1,.15.6Z" transform="translate(-222.58 -323.55)"/><path class="cls-16" d="M363.39,418.81l-1.07-.62,0.34-.38a0.39,0.39,0,0,1,.48-0.08l0.19,0.11a0.39,0.39,0,0,1,.18.41Z" transform="translate(-222.58 -323.55)"/><path class="cls-16" d="M360.82,417.38l-0.62-.17,0.12-.24a0.2,0.2,0,0,1,.23-0.1l0.11,0a0.2,0.2,0,0,1,.15.18v0.3Z" transform="translate(-222.58 -323.55)"/></svg>