<svg id="Layer_1" data-name="Layer 1" xmlns="http://www.w3.org/2000/svg" viewBox="0 0 143.13 106.72"><defs><style>.cls-1{fill:#ff9e16;}.cls-2{fill:none;stroke:#ff9e16;stroke-linecap:round;stroke-linejoin:round;stroke-width:2.28px;}</style></defs><title>plate</title><path class="cls-1" d="M307,436.09a45.53,45.53,0,1,1,45.53-45.53A45.58,45.58,0,0,1,307,436.09ZM307,348a42.58,42.58,0,1,0,42.58,42.58A42.62,42.62,0,0,0,307,348Z" transform="translate(-234.02 -342.95)"/><path class="cls-1" d="M307,419.22a28.66,28.66,0,1,1,28.66-28.66A28.69,28.69,0,0,1,307,419.22Zm0-54.36a25.7,25.7,0,1,0,25.7,25.7A25.73,25.73,0,0,0,307,364.86Z" transform="translate(-234.02 -342.95)"/><path class="cls-2" d="M375.78,440.32s-1.14-22.25-1.61-35.47l-0.7-58.21c0-2.38-2-3.53-3.33-1.5a15.27,15.27,0,0,0-2.09,6.42c-1,7.51-6.53,42.69-3.75,47.57a13.62,13.62,0,0,0,5.86,5.05c-0.58,12.45-2,38-2,38s-0.87,6.19,4.18,6.36S375.78,440.32,375.78,440.32Z" transform="translate(-234.02 -342.95)"/><path class="cls-2" d="M240.48,367.7c-0.84,0-1.68-.44-1.68-1V347.28c0-1.46-.62-2.63-1.61-2.63a2,2,0,0,0-2,2.06v25.7a6.9,6.9,0,0,0,.76,3.37A14.19,14.19,0,0,0,237.7,379c2.54,3.88,4.72,5.48,4.57,11.63-0.18,7.59-2.34,46.9-2.34,46.9s-0.9,6.68,4.33,6.86,3.61-8.85,3.61-8.85-2.08-42.3-1.86-48c0.16-4.12,3.35-6.24,5.48-10a15.66,15.66,0,0,0,1-1.94,4.11,4.11,0,0,0,.48-1.91V347.28c0-1.46-.38-2.63-1.76-2.63s-1.87,1.08-1.87,2.54v19.43c0,0.55-1.11,1.08-1.65,1.08s-1.8-.44-1.8-1V347.28c0-1.46-.4-2.63-2-2.63-1.24,0-1.86,1.18-1.86,2.63v19.43A2.08,2.08,0,0,1,240.48,367.7Z" transform="translate(-234.02 -342.95)"/></svg>