<svg id="Layer_1" data-name="Layer 1" xmlns="http://www.w3.org/2000/svg" viewBox="0 0 91.87 119.78"><defs><style>.cls-1{fill:#416e59;}.cls-2{fill:#96c6af;}.cls-3{fill:#fff;}</style></defs><title>recycle</title><path class="cls-1" d="M341.58,352.25h-7.87a2,2,0,0,1-2-2v-3.55a10.16,10.16,0,0,0-10.15-10.15H290.06a10.16,10.16,0,0,0-10.15,10.15v3.55a2,2,0,0,1-2,2H270a10.15,10.15,0,0,0-10.15,10.15V372a2,2,0,0,0,2,2h87.8a2,2,0,0,0,2-2V362.4A10.15,10.15,0,0,0,341.58,352.25Zm-18-2a2,2,0,0,1-2,2H290.06a2,2,0,0,1-2-2v-3.55a2,2,0,0,1,2-2h31.47a2,2,0,0,1,2,2v3.55Z" transform="translate(-259.86 -336.51)"/><path class="cls-2" d="M341.07,379.15H270.52a2,2,0,0,0-2,2v65a10.15,10.15,0,0,0,10.15,10.15H333a10.15,10.15,0,0,0,10.15-10.15v-65A2,2,0,0,0,341.07,379.15Z" transform="translate(-259.86 -336.51)"/><path class="cls-3" d="M291.19,427.32c0.89,1.54,3.17,2.43,6.26,2.43v8c-6,0-10.8-2.33-13.15-6.4s-2-9.39,1-14.59l1.54-2.67-4.17-2.41,12-2.84,3.52,11.84L293.76,418l-1.54,2.67C290.68,423.36,290.3,425.78,291.19,427.32Z" transform="translate(-259.86 -336.51)"/><path class="cls-3" d="M300.6,406.19l-6.89-4c3-5.2,7.42-8.19,12.12-8.19s9.12,3,12.12,8.19l2,3.5,4.94-2.43-4.3,11.58-11.8-3.64,4-2-1.76-3.05c-1.54-2.68-3.45-4.21-5.23-4.21S302.14,403.51,300.6,406.19Z" transform="translate(-259.86 -336.51)"/><path class="cls-3" d="M327.35,431.3c-2.35,4.07-7.14,6.4-13.15,6.4h-2.13v5l-8.48-9,8.48-9v5h2.13c3.09,0,5.37-.88,6.26-2.43s0.51-4-1-6.64l6.89-4C329.33,421.91,329.7,427.23,327.35,431.3Z" transform="translate(-259.86 -336.51)"/></svg>