<svg id="Layer_1" data-name="Layer 1" xmlns="http://www.w3.org/2000/svg" viewBox="0 0 162.21 100.14"><defs><style>.cls-1{fill:#bcbec0;}.cls-2{fill:#fff;}.cls-3{fill:#ff9e16;}.cls-4{fill:#70707e;}.cls-5{fill:#464c53;}.cls-6{fill:#9f9ca6;}.cls-7{fill:#bab7be;}.cls-8{fill:#f47a20;}</style></defs><title>truck</title><path class="cls-1" d="M326.94,359.4H359.8c9.62,0,13.8,15.81,17.18,25.72,12.37,36.25,10.31,44.28-9.62,44.28H310.5Z" transform="translate(-222.48 -346.4)"/><path class="cls-2" d="M373.15,389.37c-0.45-1.31-.93-2.53-1.37-3.57C368.6,378.39,366,366,358.55,366H333.68v23.37h39.47Z" transform="translate(-222.48 -346.4)"/><rect class="cls-3" width="104" height="83" rx="6.87" ry="6.87"/><path class="cls-4" d="M222.53,422.82a6.87,6.87,0,0,0,6.86,6.58H377.63a6.87,6.87,0,0,0,6.86-6.58h-162Z" transform="translate(-222.48 -346.4)"/><circle class="cls-5" cx="32.17" cy="82.8" r="17.35"/><circle class="cls-6" cx="32.17" cy="82.8" r="9.83"/><circle class="cls-7" cx="32.17" cy="82.8" r="6.93"/><circle class="cls-5" cx="130.84" cy="82.8" r="17.35"/><circle class="cls-6" cx="130.84" cy="82.8" r="9.83"/><circle class="cls-7" cx="130.84" cy="82.8" r="6.93"/><rect class="cls-8" x="19.71" y="18.99" width="64.41" height="34.07"/></svg>